<?xml version="1.0" encoding="UTF-8" standalone="no"?>
<!DOCTYPE svg PUBLIC "-//W3C//DTD SVG 1.1//EN"
 "http://www.w3.org/Graphics/SVG/1.1/DTD/svg11.dtd">
<!-- Generated by graphviz version 2.40.1 (20161225.0304)
 -->
<!-- Title: G Pages: 1 -->
<svg width="1379pt" height="680pt"
 viewBox="0.00 0.00 1379.00 680.00" xmlns="http://www.w3.org/2000/svg" xmlns:xlink="http://www.w3.org/1999/xlink">
<g id="graph0" class="graph" transform="scale(1 1) rotate(0) translate(4 676)">
<title>G</title>
<polygon fill="#ffffff" stroke="transparent" points="-4,4 -4,-676 1375,-676 1375,4 -4,4"/>
<g id="clust1" class="cluster">
<title>cluster_root</title>
<g id="a_clust1"><a xlink:title="eventq_index=0&#10;full_system=false&#10;sim_quantum=0&#10;time_sync_enable=false&#10;time_sync_period=100000000000&#10;time_sync_spin_threshold=100000000">
<path fill="#bab6ae" stroke="#000000" d="M20,-8C20,-8 1351,-8 1351,-8 1357,-8 1363,-14 1363,-20 1363,-20 1363,-652 1363,-652 1363,-658 1357,-664 1351,-664 1351,-664 20,-664 20,-664 14,-664 8,-658 8,-652 8,-652 8,-20 8,-20 8,-14 14,-8 20,-8"/>
<text text-anchor="middle" x="685.5" y="-648.8" font-family="Arial" font-size="14.00" fill="#000000">root </text>
<text text-anchor="middle" x="685.5" y="-633.8" font-family="Arial" font-size="14.00" fill="#000000">: Root</text>
</a>
</g>
</g>
<g id="clust2" class="cluster">
<title>cluster_system</title>
<g id="a_clust2"><a xlink:title="auto_unlink_shared_backstore=false&#10;cache_line_size=64&#10;eventq_index=0&#10;exit_on_work_items=false&#10;init_param=0&#10;m5ops_base=0&#10;mem_mode=timing&#10;mem_ranges=0:2147483648&#10;memories=system.mem_ctrls.dram&#10;mmap_using_noreserve=false&#10;multi_thread=false&#10;&#10;um_work_ids=16&#10;&#13;eadfile=&#10;&#13;edirect_paths=system.redirect_paths0 system.redirect_paths1 system.redirect_paths2&#10;shadow_rom_ranges=&#10;shared_backstore=&#10;symbolfile=&#10;thermal_components=&#10;thermal_model=Null&#10;work_begin_ckpt_count=0&#10;work_begin_cpu_id_exit=&#45;1&#10;work_begin_exit_count=0&#10;work_cpus_ckpt_count=0&#10;work_end_ckpt_count=0&#10;work_end_exit_count=0&#10;work_item_id=&#45;1&#10;workload=system.workload">
<path fill="#e4e7eb" stroke="#000000" d="M28,-16C28,-16 1343,-16 1343,-16 1349,-16 1355,-22 1355,-28 1355,-28 1355,-606 1355,-606 1355,-612 1349,-618 1343,-618 1343,-618 28,-618 28,-618 22,-618 16,-612 16,-606 16,-606 16,-28 16,-28 16,-22 22,-16 28,-16"/>
<text text-anchor="middle" x="685.5" y="-602.8" font-family="Arial" font-size="14.00" fill="#000000">system </text>
<text text-anchor="middle" x="685.5" y="-587.8" font-family="Arial" font-size="14.00" fill="#000000">: System</text>
</a>
</g>
</g>
<g id="clust4" class="cluster">
<title>cluster_system_cpu</title>
<g id="a_clust4"><a xlink:title="LFSTSize=1024&#10;LQEntries=32&#10;LSQCheckLoads=true&#10;LSQDepCheckShift=4&#10;SQEntries=32&#10;SSITSize=1024&#10;activity=0&#10;backComSize=5&#10;branchPred=system.cpu.branchPred&#10;cacheLoadPorts=200&#10;cacheStorePorts=200&#10;checker=Null&#10;clk_domain=system.cpu_clk_domain&#10;commitToDecodeDelay=1&#10;commitToFetchDelay=1&#10;commitToIEWDelay=1&#10;commitToRenameDelay=1&#10;commitWidth=8&#10;cpu_id=0&#10;decodeToFetchDelay=1&#10;decodeToRenameDelay=1&#10;decodeWidth=8&#10;decoder=system.cpu.decoder&#10;dispatchWidth=8&#10;do_checkpoint_insts=true&#10;do_statistics_insts=true&#10;eventq_index=0&#10;fetchBufferSize=64&#10;fetchQueueSize=32&#10;fetchToDecodeDelay=1&#10;fetchTrapLatency=1&#10;fetchWidth=8&#10;forwardComSize=5&#10;fuPool=system.cpu.fuPool&#10;function_trace=false&#10;function_trace_start=0&#10;iewToCommitDelay=1&#10;iewToDecodeDelay=1&#10;iewToFetchDelay=1&#10;iewToRenameDelay=1&#10;interrupts=system.cpu.interrupts&#10;isa=system.cpu.isa&#10;issueToExecuteDelay=1&#10;issueWidth=8&#10;max_insts_all_threads=0&#10;max_insts_any_thread=10000000&#10;mmu=system.cpu.mmu&#10;&#10;eedsTSO=true&#10;&#10;umIQEntries=64&#10;&#10;umPhysCCRegs=1280&#10;&#10;umPhysFloatRegs=256&#10;&#10;umPhysIntRegs=256&#10;&#10;umPhysMatRegs=2&#10;&#10;umPhysVecPredRegs=32&#10;&#10;umPhysVecRegs=256&#10;&#10;umROBEntries=192&#10;&#10;umRobs=1&#10;&#10;umThreads=1&#10;power_gating_on_idle=false&#10;power_model=&#10;power_state=system.cpu.power_state&#10;progress_interval=0&#10;pwr_gating_latency=300&#10;&#13;enameToDecodeDelay=1&#10;&#13;enameToFetchDelay=1&#10;&#13;enameToIEWDelay=2&#10;&#13;enameToROBDelay=1&#10;&#13;enameWidth=8&#10;simpoint_start_insts=&#10;smtCommitPolicy=RoundRobin&#10;smtFetchPolicy=RoundRobin&#10;smtIQPolicy=Partitioned&#10;smtIQThreshold=100&#10;smtLSQPolicy=Partitioned&#10;smtLSQThreshold=100&#10;smtNumFetchingThreads=1&#10;smtROBPolicy=Partitioned&#10;smtROBThreshold=100&#10;socket_id=0&#10;squashWidth=8&#10;store_set_clear_period=250000&#10;switched_out=false&#10;syscallRetryLatency=10000&#10;system=system&#10;tracer=system.cpu.tracer&#10;trapLatency=13&#10;wbWidth=8&#10;workload=system.cpu.workload">
<path fill="#bbc6d9" stroke="#000000" d="M425,-24C425,-24 1335,-24 1335,-24 1341,-24 1347,-30 1347,-36 1347,-36 1347,-378 1347,-378 1347,-384 1341,-390 1335,-390 1335,-390 425,-390 425,-390 419,-390 413,-384 413,-378 413,-378 413,-36 413,-36 413,-30 419,-24 425,-24"/>
<text text-anchor="middle" x="880" y="-374.8" font-family="Arial" font-size="14.00" fill="#000000">cpu </text>
<text text-anchor="middle" x="880" y="-359.8" font-family="Arial" font-size="14.00" fill="#000000">: X86O3CPU</text>
</a>
</g>
</g>
<g id="clust5" class="cluster">
<title>cluster_system_cpu_mmu</title>
<g id="a_clust5"><a xlink:title="dtb=system.cpu.mmu.dtb&#10;eventq_index=0&#10;itb=system.cpu.mmu.itb">
<path fill="#bab6ae" stroke="#000000" d="M973,-146C973,-146 1327,-146 1327,-146 1333,-146 1339,-152 1339,-158 1339,-158 1339,-332 1339,-332 1339,-338 1333,-344 1327,-344 1327,-344 973,-344 973,-344 967,-344 961,-338 961,-332 961,-332 961,-158 961,-158 961,-152 967,-146 973,-146"/>
<text text-anchor="middle" x="1150" y="-328.8" font-family="Arial" font-size="14.00" fill="#000000">mmu </text>
<text text-anchor="middle" x="1150" y="-313.8" font-family="Arial" font-size="14.00" fill="#000000">: X86MMU</text>
</a>
</g>
</g>
<g id="clust6" class="cluster">
<title>cluster_system_cpu_mmu_itb</title>
<g id="a_clust6"><a xlink:title="entry_type=instruction&#10;eventq_index=0&#10;&#10;ext_level=Null&#10;size=64&#10;system=system&#10;walker=system.cpu.mmu.itb.walker">
<path fill="#9f9c95" stroke="#000000" d="M981,-154C981,-154 1134,-154 1134,-154 1140,-154 1146,-160 1146,-166 1146,-166 1146,-286 1146,-286 1146,-292 1140,-298 1134,-298 1134,-298 981,-298 981,-298 975,-298 969,-292 969,-286 969,-286 969,-166 969,-166 969,-160 975,-154 981,-154"/>
<text text-anchor="middle" x="1057.5" y="-282.8" font-family="Arial" font-size="14.00" fill="#000000">itb </text>
<text text-anchor="middle" x="1057.5" y="-267.8" font-family="Arial" font-size="14.00" fill="#000000">: X86TLB</text>
</a>
</g>
</g>
<g id="clust7" class="cluster">
<title>cluster_system_cpu_mmu_itb_walker</title>
<g id="a_clust7"><a xlink:title="clk_domain=system.cpu_clk_domain&#10;eventq_index=0&#10;&#10;um_squash_per_cycle=4&#10;power_model=&#10;power_state=system.cpu.mmu.itb.walker.power_state&#10;system=system">
<path fill="#84827c" stroke="#000000" d="M989,-162C989,-162 1126,-162 1126,-162 1132,-162 1138,-168 1138,-174 1138,-174 1138,-240 1138,-240 1138,-246 1132,-252 1126,-252 1126,-252 989,-252 989,-252 983,-252 977,-246 977,-240 977,-240 977,-174 977,-174 977,-168 983,-162 989,-162"/>
<text text-anchor="middle" x="1057.5" y="-236.8" font-family="Arial" font-size="14.00" fill="#000000">walker </text>
<text text-anchor="middle" x="1057.5" y="-221.8" font-family="Arial" font-size="14.00" fill="#000000">: X86PagetableWalker</text>
</a>
</g>
</g>
<g id="clust9" class="cluster">
<title>cluster_system_cpu_mmu_dtb</title>
<g id="a_clust9"><a xlink:title="entry_type=data&#10;eventq_index=0&#10;&#10;ext_level=Null&#10;size=64&#10;system=system&#10;walker=system.cpu.mmu.dtb.walker">
<path fill="#9f9c95" stroke="#000000" d="M1166,-154C1166,-154 1319,-154 1319,-154 1325,-154 1331,-160 1331,-166 1331,-166 1331,-286 1331,-286 1331,-292 1325,-298 1319,-298 1319,-298 1166,-298 1166,-298 1160,-298 1154,-292 1154,-286 1154,-286 1154,-166 1154,-166 1154,-160 1160,-154 1166,-154"/>
<text text-anchor="middle" x="1242.5" y="-282.8" font-family="Arial" font-size="14.00" fill="#000000">dtb </text>
<text text-anchor="middle" x="1242.5" y="-267.8" font-family="Arial" font-size="14.00" fill="#000000">: X86TLB</text>
</a>
</g>
</g>
<g id="clust10" class="cluster">
<title>cluster_system_cpu_mmu_dtb_walker</title>
<g id="a_clust10"><a xlink:title="clk_domain=system.cpu_clk_domain&#10;eventq_index=0&#10;&#10;um_squash_per_cycle=4&#10;power_model=&#10;power_state=system.cpu.mmu.dtb.walker.power_state&#10;system=system">
<path fill="#84827c" stroke="#000000" d="M1174,-162C1174,-162 1311,-162 1311,-162 1317,-162 1323,-168 1323,-174 1323,-174 1323,-240 1323,-240 1323,-246 1317,-252 1311,-252 1311,-252 1174,-252 1174,-252 1168,-252 1162,-246 1162,-240 1162,-240 1162,-174 1162,-174 1162,-168 1168,-162 1174,-162"/>
<text text-anchor="middle" x="1242.5" y="-236.8" font-family="Arial" font-size="14.00" fill="#000000">walker </text>
<text text-anchor="middle" x="1242.5" y="-221.8" font-family="Arial" font-size="14.00" fill="#000000">: X86PagetableWalker</text>
</a>
</g>
</g>
<g id="clust79" class="cluster">
<title>cluster_system_cpu_icache</title>
<g id="a_clust79"><a xlink:title="addr_ranges=0:18446744073709551615&#10;assoc=2&#10;clk_domain=system.cpu_clk_domain&#10;clusivity=mostly_incl&#10;compressor=Null&#10;data_latency=2&#10;demand_mshr_reserve=1&#10;eventq_index=0&#10;is_read_only=true&#10;max_miss_count=0&#10;move_contractions=true&#10;mshrs=4&#10;power_model=&#10;power_state=system.cpu.icache.power_state&#10;prefetch_on_access=false&#10;prefetch_on_pf_hit=false&#10;prefetcher=Null&#10;&#13;eplace_expansions=true&#10;&#13;eplacement_policy=system.cpu.icache.replacement_policy&#10;&#13;esponse_latency=2&#10;sequential_access=false&#10;size=32768&#10;system=system&#10;tag_latency=2&#10;tags=system.cpu.icache.tags&#10;tgts_per_mshr=20&#10;warmup_percentage=0&#10;write_allocator=Null&#10;write_buffers=8&#10;writeback_clean=true">
<path fill="#bab6ae" stroke="#000000" d="M635,-32C635,-32 805,-32 805,-32 811,-32 817,-38 817,-44 817,-44 817,-110 817,-110 817,-116 811,-122 805,-122 805,-122 635,-122 635,-122 629,-122 623,-116 623,-110 623,-110 623,-44 623,-44 623,-38 629,-32 635,-32"/>
<text text-anchor="middle" x="720" y="-106.8" font-family="Arial" font-size="14.00" fill="#000000">icache </text>
<text text-anchor="middle" x="720" y="-91.8" font-family="Arial" font-size="14.00" fill="#000000">: L1_ICache</text>
</a>
</g>
</g>
<g id="clust85" class="cluster">
<title>cluster_system_cpu_dcache</title>
<g id="a_clust85"><a xlink:title="addr_ranges=0:18446744073709551615&#10;assoc=2&#10;clk_domain=system.cpu_clk_domain&#10;clusivity=mostly_incl&#10;compressor=Null&#10;data_latency=2&#10;demand_mshr_reserve=1&#10;eventq_index=0&#10;is_read_only=false&#10;max_miss_count=0&#10;move_contractions=true&#10;mshrs=4&#10;power_model=&#10;power_state=system.cpu.dcache.power_state&#10;prefetch_on_access=false&#10;prefetch_on_pf_hit=false&#10;prefetcher=Null&#10;&#13;eplace_expansions=true&#10;&#13;eplacement_policy=system.cpu.dcache.replacement_policy&#10;&#13;esponse_latency=2&#10;sequential_access=false&#10;size=65536&#10;system=system&#10;tag_latency=2&#10;tags=system.cpu.dcache.tags&#10;tgts_per_mshr=20&#10;warmup_percentage=0&#10;write_allocator=Null&#10;write_buffers=8&#10;writeback_clean=false">
<path fill="#bab6ae" stroke="#000000" d="M433,-32C433,-32 603,-32 603,-32 609,-32 615,-38 615,-44 615,-44 615,-110 615,-110 615,-116 609,-122 603,-122 603,-122 433,-122 433,-122 427,-122 421,-116 421,-110 421,-110 421,-44 421,-44 421,-38 427,-32 433,-32"/>
<text text-anchor="middle" x="518" y="-106.8" font-family="Arial" font-size="14.00" fill="#000000">dcache </text>
<text text-anchor="middle" x="518" y="-91.8" font-family="Arial" font-size="14.00" fill="#000000">: L1_DCache</text>
</a>
</g>
</g>
<g id="clust91" class="cluster">
<title>cluster_system_cpu_itb_walker_cache</title>
<g id="a_clust91"><a xlink:title="addr_ranges=0:18446744073709551615&#10;assoc=2&#10;clk_domain=system.cpu_clk_domain&#10;clusivity=mostly_incl&#10;compressor=Null&#10;data_latency=2&#10;demand_mshr_reserve=1&#10;eventq_index=0&#10;is_read_only=false&#10;max_miss_count=0&#10;move_contractions=true&#10;mshrs=10&#10;power_model=&#10;power_state=system.cpu.itb_walker_cache.power_state&#10;prefetch_on_access=false&#10;prefetch_on_pf_hit=false&#10;prefetcher=Null&#10;&#13;eplace_expansions=true&#10;&#13;eplacement_policy=system.cpu.itb_walker_cache.replacement_policy&#10;&#13;esponse_latency=2&#10;sequential_access=false&#10;size=1024&#10;system=system&#10;tag_latency=2&#10;tags=system.cpu.itb_walker_cache.tags&#10;tgts_per_mshr=12&#10;warmup_percentage=0&#10;write_allocator=Null&#10;write_buffers=8&#10;writeback_clean=false">
<path fill="#bab6ae" stroke="#000000" d="M848,-32C848,-32 1018,-32 1018,-32 1024,-32 1030,-38 1030,-44 1030,-44 1030,-110 1030,-110 1030,-116 1024,-122 1018,-122 1018,-122 848,-122 848,-122 842,-122 836,-116 836,-110 836,-110 836,-44 836,-44 836,-38 842,-32 848,-32"/>
<text text-anchor="middle" x="933" y="-106.8" font-family="Arial" font-size="14.00" fill="#000000">itb_walker_cache </text>
<text text-anchor="middle" x="933" y="-91.8" font-family="Arial" font-size="14.00" fill="#000000">: PageTableWalkerCache</text>
</a>
</g>
</g>
<g id="clust97" class="cluster">
<title>cluster_system_cpu_dtb_walker_cache</title>
<g id="a_clust97"><a xlink:title="addr_ranges=0:18446744073709551615&#10;assoc=2&#10;clk_domain=system.cpu_clk_domain&#10;clusivity=mostly_incl&#10;compressor=Null&#10;data_latency=2&#10;demand_mshr_reserve=1&#10;eventq_index=0&#10;is_read_only=false&#10;max_miss_count=0&#10;move_contractions=true&#10;mshrs=10&#10;power_model=&#10;power_state=system.cpu.dtb_walker_cache.power_state&#10;prefetch_on_access=false&#10;prefetch_on_pf_hit=false&#10;prefetcher=Null&#10;&#13;eplace_expansions=true&#10;&#13;eplacement_policy=system.cpu.dtb_walker_cache.replacement_policy&#10;&#13;esponse_latency=2&#10;sequential_access=false&#10;size=1024&#10;system=system&#10;tag_latency=2&#10;tags=system.cpu.dtb_walker_cache.tags&#10;tgts_per_mshr=12&#10;warmup_percentage=0&#10;write_allocator=Null&#10;write_buffers=8&#10;writeback_clean=false">
<path fill="#bab6ae" stroke="#000000" d="M1055,-32C1055,-32 1225,-32 1225,-32 1231,-32 1237,-38 1237,-44 1237,-44 1237,-110 1237,-110 1237,-116 1231,-122 1225,-122 1225,-122 1055,-122 1055,-122 1049,-122 1043,-116 1043,-110 1043,-110 1043,-44 1043,-44 1043,-38 1049,-32 1055,-32"/>
<text text-anchor="middle" x="1140" y="-106.8" font-family="Arial" font-size="14.00" fill="#000000">dtb_walker_cache </text>
<text text-anchor="middle" x="1140" y="-91.8" font-family="Arial" font-size="14.00" fill="#000000">: PageTableWalkerCache</text>
</a>
</g>
</g>
<g id="clust103" class="cluster">
<title>cluster_system_cpu_interrupts</title>
<g id="a_clust103"><a xlink:title="clk_domain=system.cpu.interrupts.clk_domain&#10;eventq_index=0&#10;int_latency=1000&#10;pio_latency=100000&#10;system=system">
<path fill="#bab6ae" stroke="#000000" d="M651,-162C651,-162 941,-162 941,-162 947,-162 953,-168 953,-174 953,-174 953,-240 953,-240 953,-246 947,-252 941,-252 941,-252 651,-252 651,-252 645,-252 639,-246 639,-240 639,-240 639,-174 639,-174 639,-168 645,-162 651,-162"/>
<text text-anchor="middle" x="796" y="-236.8" font-family="Arial" font-size="14.00" fill="#000000">interrupts </text>
<text text-anchor="middle" x="796" y="-221.8" font-family="Arial" font-size="14.00" fill="#000000">: X86LocalApic</text>
</a>
</g>
</g>
<g id="clust109" class="cluster">
<title>cluster_system_membus</title>
<g id="a_clust109"><a xlink:title="clk_domain=system.clk_domain&#10;eventq_index=0&#10;forward_latency=4&#10;frontend_latency=3&#10;header_latency=1&#10;max_outstanding_snoops=512&#10;max_routing_table_size=512&#10;point_of_coherency=true&#10;point_of_unification=true&#10;power_model=&#10;power_state=system.membus.power_state&#10;&#13;esponse_latency=2&#10;snoop_filter=system.membus.snoop_filter&#10;snoop_response_latency=4&#10;system=system&#10;use_default_range=false&#10;width=16">
<path fill="#6f798c" stroke="#000000" d="M627,-398C627,-398 879,-398 879,-398 885,-398 891,-404 891,-410 891,-410 891,-476 891,-476 891,-482 885,-488 879,-488 879,-488 627,-488 627,-488 621,-488 615,-482 615,-476 615,-476 615,-410 615,-410 615,-404 621,-398 627,-398"/>
<text text-anchor="middle" x="753" y="-472.8" font-family="Arial" font-size="14.00" fill="#000000">membus </text>
<text text-anchor="middle" x="753" y="-457.8" font-family="Arial" font-size="14.00" fill="#000000">: SystemXBar</text>
</a>
</g>
</g>
<g id="clust112" class="cluster">
<title>cluster_system_l2</title>
<g id="a_clust112"><a xlink:title="addr_ranges=0:18446744073709551615&#10;assoc=8&#10;clk_domain=system.cpu_clk_domain&#10;clusivity=mostly_incl&#10;compressor=Null&#10;data_latency=20&#10;demand_mshr_reserve=1&#10;eventq_index=0&#10;is_read_only=false&#10;max_miss_count=0&#10;move_contractions=true&#10;mshrs=20&#10;power_model=&#10;power_state=system.l2.power_state&#10;prefetch_on_access=false&#10;prefetch_on_pf_hit=false&#10;prefetcher=Null&#10;&#13;eplace_expansions=true&#10;&#13;eplacement_policy=system.l2.replacement_policy&#10;&#13;esponse_latency=20&#10;sequential_access=false&#10;size=2097152&#10;system=system&#10;tag_latency=20&#10;tags=system.l2.tags&#10;tgts_per_mshr=12&#10;warmup_percentage=0&#10;write_allocator=Null&#10;write_buffers=8&#10;writeback_clean=false">
<path fill="#bab6ae" stroke="#000000" d="M50,-32C50,-32 220,-32 220,-32 226,-32 232,-38 232,-44 232,-44 232,-110 232,-110 232,-116 226,-122 220,-122 220,-122 50,-122 50,-122 44,-122 38,-116 38,-110 38,-110 38,-44 38,-44 38,-38 44,-32 50,-32"/>
<text text-anchor="middle" x="135" y="-106.8" font-family="Arial" font-size="14.00" fill="#000000">l2 </text>
<text text-anchor="middle" x="135" y="-91.8" font-family="Arial" font-size="14.00" fill="#000000">: L2Cache</text>
</a>
</g>
</g>
<g id="clust118" class="cluster">
<title>cluster_system_tol2bus</title>
<g id="a_clust118"><a xlink:title="clk_domain=system.cpu_clk_domain&#10;eventq_index=0&#10;forward_latency=0&#10;frontend_latency=1&#10;header_latency=1&#10;max_outstanding_snoops=512&#10;max_routing_table_size=512&#10;point_of_coherency=false&#10;point_of_unification=true&#10;power_model=&#10;power_state=system.tol2bus.power_state&#10;&#13;esponse_latency=1&#10;snoop_filter=system.tol2bus.snoop_filter&#10;snoop_response_latency=1&#10;system=system&#10;use_default_range=false&#10;width=32">
<path fill="#6f798c" stroke="#000000" d="M141,-162C141,-162 393,-162 393,-162 399,-162 405,-168 405,-174 405,-174 405,-240 405,-240 405,-246 399,-252 393,-252 393,-252 141,-252 141,-252 135,-252 129,-246 129,-240 129,-240 129,-174 129,-174 129,-168 135,-162 141,-162"/>
<text text-anchor="middle" x="267" y="-236.8" font-family="Arial" font-size="14.00" fill="#000000">tol2bus </text>
<text text-anchor="middle" x="267" y="-221.8" font-family="Arial" font-size="14.00" fill="#000000">: L2XBar</text>
</a>
</g>
</g>
<g id="clust121" class="cluster">
<title>cluster_system_mem_ctrls</title>
<g id="a_clust121"><a xlink:title="clk_domain=system.clk_domain&#10;command_window=10000&#10;disable_sanity_check=false&#10;dram=system.mem_ctrls.dram&#10;eventq_index=0&#10;mem_sched_policy=frfcfs&#10;min_reads_per_switch=16&#10;min_writes_per_switch=16&#10;power_model=&#10;power_state=system.mem_ctrls.power_state&#10;qos_policy=Null&#10;qos_priorities=1&#10;qos_priority_escalation=false&#10;qos_q_policy=fifo&#10;qos_requestors= &#160;&#160;&#160;&#160;&#160;&#160;&#160;&#160;&#160;&#160;&#160;&#160;&#160;&#160;&#10;qos_syncro_scheduler=false&#10;qos_turnaround_policy=Null&#10;static_backend_latency=10000&#10;static_frontend_latency=10000&#10;system=system&#10;write_high_thresh_perc=85&#10;write_low_thresh_perc=50">
<path fill="#bab6ae" stroke="#000000" d="M46,-162C46,-162 109,-162 109,-162 115,-162 121,-168 121,-174 121,-174 121,-240 121,-240 121,-246 115,-252 109,-252 109,-252 46,-252 46,-252 40,-252 34,-246 34,-240 34,-240 34,-174 34,-174 34,-168 40,-162 46,-162"/>
<text text-anchor="middle" x="77.5" y="-236.8" font-family="Arial" font-size="14.00" fill="#000000">mem_ctrls </text>
<text text-anchor="middle" x="77.5" y="-221.8" font-family="Arial" font-size="14.00" fill="#000000">: MemCtrl</text>
</a>
</g>
</g>
<!-- system_system_port -->
<g id="node1" class="node">
<title>system_system_port</title>
<path fill="#b6b8bc" stroke="#000000" d="M717,-572C717,-572 645,-572 645,-572 639,-572 633,-566 633,-560 633,-560 633,-548 633,-548 633,-542 639,-536 645,-536 645,-536 717,-536 717,-536 723,-536 729,-542 729,-548 729,-548 729,-560 729,-560 729,-566 723,-572 717,-572"/>
<text text-anchor="middle" x="681" y="-550.3" font-family="Arial" font-size="14.00" fill="#000000">system_port</text>
</g>
<!-- system_membus_cpu_side_ports -->
<g id="node17" class="node">
<title>system_membus_cpu_side_ports</title>
<path fill="#586070" stroke="#000000" d="M727,-442C727,-442 635,-442 635,-442 629,-442 623,-436 623,-430 623,-430 623,-418 623,-418 623,-412 629,-406 635,-406 635,-406 727,-406 727,-406 733,-406 739,-412 739,-418 739,-418 739,-430 739,-430 739,-436 733,-442 727,-442"/>
<text text-anchor="middle" x="681" y="-420.3" font-family="Arial" font-size="14.00" fill="#000000">cpu_side_ports</text>
</g>
<!-- system_system_port&#45;&gt;system_membus_cpu_side_ports -->
<g id="edge1" class="edge">
<title>system_system_port&#45;&gt;system_membus_cpu_side_ports</title>
<path fill="none" stroke="#000000" d="M681,-535.9241C681,-514.3139 681,-477.8868 681,-452.4801"/>
<polygon fill="#000000" stroke="#000000" points="684.5001,-452.3415 681,-442.3415 677.5001,-452.3415 684.5001,-452.3415"/>
</g>
<!-- system_cpu_icache_port -->
<g id="node2" class="node">
<title>system_cpu_icache_port</title>
<path fill="#959ead" stroke="#000000" d="M617,-206C617,-206 549,-206 549,-206 543,-206 537,-200 537,-194 537,-194 537,-182 537,-182 537,-176 543,-170 549,-170 549,-170 617,-170 617,-170 623,-170 629,-176 629,-182 629,-182 629,-194 629,-194 629,-200 623,-206 617,-206"/>
<text text-anchor="middle" x="583" y="-184.3" font-family="Arial" font-size="14.00" fill="#000000">icache_port</text>
</g>
<!-- system_cpu_icache_cpu_side -->
<g id="node6" class="node">
<title>system_cpu_icache_cpu_side</title>
<path fill="#94918b" stroke="#000000" d="M797,-76C797,-76 745,-76 745,-76 739,-76 733,-70 733,-64 733,-64 733,-52 733,-52 733,-46 739,-40 745,-40 745,-40 797,-40 797,-40 803,-40 809,-46 809,-52 809,-52 809,-64 809,-64 809,-70 803,-76 797,-76"/>
<text text-anchor="middle" x="771" y="-54.3" font-family="Arial" font-size="14.00" fill="#000000">cpu_side</text>
</g>
<!-- system_cpu_icache_port&#45;&gt;system_cpu_icache_cpu_side -->
<g id="edge2" class="edge">
<title>system_cpu_icache_port&#45;&gt;system_cpu_icache_cpu_side</title>
<path fill="none" stroke="#000000" d="M601.4051,-169.9654C610.7988,-161.6281 622.8,-152.2188 635,-146 671.5001,-127.3946 690.1961,-145.1456 724,-122 737.638,-112.6621 748.8108,-98.0323 756.8361,-85.116"/>
<polygon fill="#000000" stroke="#000000" points="760.0755,-86.5108 762.1137,-76.1139 754.0368,-82.9705 760.0755,-86.5108"/>
</g>
<!-- system_cpu_dcache_port -->
<g id="node3" class="node">
<title>system_cpu_dcache_port</title>
<path fill="#959ead" stroke="#000000" d="M507,-206C507,-206 433,-206 433,-206 427,-206 421,-200 421,-194 421,-194 421,-182 421,-182 421,-176 427,-170 433,-170 433,-170 507,-170 507,-170 513,-170 519,-176 519,-182 519,-182 519,-194 519,-194 519,-200 513,-206 507,-206"/>
<text text-anchor="middle" x="470" y="-184.3" font-family="Arial" font-size="14.00" fill="#000000">dcache_port</text>
</g>
<!-- system_cpu_dcache_cpu_side -->
<g id="node8" class="node">
<title>system_cpu_dcache_cpu_side</title>
<path fill="#94918b" stroke="#000000" d="M595,-76C595,-76 543,-76 543,-76 537,-76 531,-70 531,-64 531,-64 531,-52 531,-52 531,-46 537,-40 543,-40 543,-40 595,-40 595,-40 601,-40 607,-46 607,-52 607,-52 607,-64 607,-64 607,-70 601,-76 595,-76"/>
<text text-anchor="middle" x="569" y="-54.3" font-family="Arial" font-size="14.00" fill="#000000">cpu_side</text>
</g>
<!-- system_cpu_dcache_port&#45;&gt;system_cpu_dcache_cpu_side -->
<g id="edge3" class="edge">
<title>system_cpu_dcache_port&#45;&gt;system_cpu_dcache_cpu_side</title>
<path fill="none" stroke="#000000" d="M484.5133,-169.9201C495.0364,-156.7288 509.5463,-138.3696 522,-122 531.3119,-109.7601 541.4336,-96.0338 549.8909,-84.4412"/>
<polygon fill="#000000" stroke="#000000" points="552.9411,-86.1979 555.9929,-76.052 547.2802,-82.0803 552.9411,-86.1979"/>
</g>
<!-- system_cpu_mmu_itb_walker_port -->
<g id="node4" class="node">
<title>system_cpu_mmu_itb_walker_port</title>
<path fill="#6a6863" stroke="#000000" d="M1027,-206C1027,-206 997,-206 997,-206 991,-206 985,-200 985,-194 985,-194 985,-182 985,-182 985,-176 991,-170 997,-170 997,-170 1027,-170 1027,-170 1033,-170 1039,-176 1039,-182 1039,-182 1039,-194 1039,-194 1039,-200 1033,-206 1027,-206"/>
<text text-anchor="middle" x="1012" y="-184.3" font-family="Arial" font-size="14.00" fill="#000000">port</text>
</g>
<!-- system_cpu_itb_walker_cache_cpu_side -->
<g id="node10" class="node">
<title>system_cpu_itb_walker_cache_cpu_side</title>
<path fill="#94918b" stroke="#000000" d="M1010,-76C1010,-76 958,-76 958,-76 952,-76 946,-70 946,-64 946,-64 946,-52 946,-52 946,-46 952,-40 958,-40 958,-40 1010,-40 1010,-40 1016,-40 1022,-46 1022,-52 1022,-52 1022,-64 1022,-64 1022,-70 1016,-76 1010,-76"/>
<text text-anchor="middle" x="984" y="-54.3" font-family="Arial" font-size="14.00" fill="#000000">cpu_side</text>
</g>
<!-- system_cpu_mmu_itb_walker_port&#45;&gt;system_cpu_itb_walker_cache_cpu_side -->
<g id="edge4" class="edge">
<title>system_cpu_mmu_itb_walker_port&#45;&gt;system_cpu_itb_walker_cache_cpu_side</title>
<path fill="none" stroke="#000000" d="M1008.1067,-169.9241C1003.4314,-148.2174 995.5363,-111.5613 990.061,-86.1405"/>
<polygon fill="#000000" stroke="#000000" points="993.4777,-85.3804 987.9505,-76.3415 986.6346,-86.8543 993.4777,-85.3804"/>
</g>
<!-- system_cpu_mmu_dtb_walker_port -->
<g id="node5" class="node">
<title>system_cpu_mmu_dtb_walker_port</title>
<path fill="#6a6863" stroke="#000000" d="M1212,-206C1212,-206 1182,-206 1182,-206 1176,-206 1170,-200 1170,-194 1170,-194 1170,-182 1170,-182 1170,-176 1176,-170 1182,-170 1182,-170 1212,-170 1212,-170 1218,-170 1224,-176 1224,-182 1224,-182 1224,-194 1224,-194 1224,-200 1218,-206 1212,-206"/>
<text text-anchor="middle" x="1197" y="-184.3" font-family="Arial" font-size="14.00" fill="#000000">port</text>
</g>
<!-- system_cpu_dtb_walker_cache_cpu_side -->
<g id="node12" class="node">
<title>system_cpu_dtb_walker_cache_cpu_side</title>
<path fill="#94918b" stroke="#000000" d="M1217,-76C1217,-76 1165,-76 1165,-76 1159,-76 1153,-70 1153,-64 1153,-64 1153,-52 1153,-52 1153,-46 1159,-40 1165,-40 1165,-40 1217,-40 1217,-40 1223,-40 1229,-46 1229,-52 1229,-52 1229,-64 1229,-64 1229,-70 1223,-76 1217,-76"/>
<text text-anchor="middle" x="1191" y="-54.3" font-family="Arial" font-size="14.00" fill="#000000">cpu_side</text>
</g>
<!-- system_cpu_mmu_dtb_walker_port&#45;&gt;system_cpu_dtb_walker_cache_cpu_side -->
<g id="edge5" class="edge">
<title>system_cpu_mmu_dtb_walker_port&#45;&gt;system_cpu_dtb_walker_cache_cpu_side</title>
<path fill="none" stroke="#000000" d="M1196.1657,-169.9241C1195.1683,-148.3139 1193.4871,-111.8868 1192.3145,-86.4801"/>
<polygon fill="#000000" stroke="#000000" points="1195.804,-86.1695 1191.8465,-76.3415 1188.8114,-86.4923 1195.804,-86.1695"/>
</g>
<!-- system_cpu_icache_mem_side -->
<g id="node7" class="node">
<title>system_cpu_icache_mem_side</title>
<path fill="#94918b" stroke="#000000" d="M703,-76C703,-76 643,-76 643,-76 637,-76 631,-70 631,-64 631,-64 631,-52 631,-52 631,-46 637,-40 643,-40 643,-40 703,-40 703,-40 709,-40 715,-46 715,-52 715,-52 715,-64 715,-64 715,-70 709,-76 703,-76"/>
<text text-anchor="middle" x="673" y="-54.3" font-family="Arial" font-size="14.00" fill="#000000">mem_side</text>
</g>
<!-- system_cpu_dcache_mem_side -->
<g id="node9" class="node">
<title>system_cpu_dcache_mem_side</title>
<path fill="#94918b" stroke="#000000" d="M501,-76C501,-76 441,-76 441,-76 435,-76 429,-70 429,-64 429,-64 429,-52 429,-52 429,-46 435,-40 441,-40 441,-40 501,-40 501,-40 507,-40 513,-46 513,-52 513,-52 513,-64 513,-64 513,-70 507,-76 501,-76"/>
<text text-anchor="middle" x="471" y="-54.3" font-family="Arial" font-size="14.00" fill="#000000">mem_side</text>
</g>
<!-- system_cpu_itb_walker_cache_mem_side -->
<g id="node11" class="node">
<title>system_cpu_itb_walker_cache_mem_side</title>
<path fill="#94918b" stroke="#000000" d="M916,-76C916,-76 856,-76 856,-76 850,-76 844,-70 844,-64 844,-64 844,-52 844,-52 844,-46 850,-40 856,-40 856,-40 916,-40 916,-40 922,-40 928,-46 928,-52 928,-52 928,-64 928,-64 928,-70 922,-76 916,-76"/>
<text text-anchor="middle" x="886" y="-54.3" font-family="Arial" font-size="14.00" fill="#000000">mem_side</text>
</g>
<!-- system_cpu_dtb_walker_cache_mem_side -->
<g id="node13" class="node">
<title>system_cpu_dtb_walker_cache_mem_side</title>
<path fill="#94918b" stroke="#000000" d="M1123,-76C1123,-76 1063,-76 1063,-76 1057,-76 1051,-70 1051,-64 1051,-64 1051,-52 1051,-52 1051,-46 1057,-40 1063,-40 1063,-40 1123,-40 1123,-40 1129,-40 1135,-46 1135,-52 1135,-52 1135,-64 1135,-64 1135,-70 1129,-76 1123,-76"/>
<text text-anchor="middle" x="1093" y="-54.3" font-family="Arial" font-size="14.00" fill="#000000">mem_side</text>
</g>
<!-- system_cpu_interrupts_int_requestor -->
<g id="node14" class="node">
<title>system_cpu_interrupts_int_requestor</title>
<path fill="#94918b" stroke="#000000" d="M736.5,-206C736.5,-206 659.5,-206 659.5,-206 653.5,-206 647.5,-200 647.5,-194 647.5,-194 647.5,-182 647.5,-182 647.5,-176 653.5,-170 659.5,-170 659.5,-170 736.5,-170 736.5,-170 742.5,-170 748.5,-176 748.5,-182 748.5,-182 748.5,-194 748.5,-194 748.5,-200 742.5,-206 736.5,-206"/>
<text text-anchor="middle" x="698" y="-184.3" font-family="Arial" font-size="14.00" fill="#000000">int_requestor</text>
</g>
<!-- system_cpu_interrupts_int_responder -->
<g id="node15" class="node">
<title>system_cpu_interrupts_int_responder</title>
<path fill="#94918b" stroke="#000000" d="M861,-206C861,-206 779,-206 779,-206 773,-206 767,-200 767,-194 767,-194 767,-182 767,-182 767,-176 773,-170 779,-170 779,-170 861,-170 861,-170 867,-170 873,-176 873,-182 873,-182 873,-194 873,-194 873,-200 867,-206 861,-206"/>
<text text-anchor="middle" x="820" y="-184.3" font-family="Arial" font-size="14.00" fill="#000000">int_responder</text>
</g>
<!-- system_cpu_interrupts_pio -->
<g id="node16" class="node">
<title>system_cpu_interrupts_pio</title>
<path fill="#94918b" stroke="#000000" d="M933,-206C933,-206 903,-206 903,-206 897,-206 891,-200 891,-194 891,-194 891,-182 891,-182 891,-176 897,-170 903,-170 903,-170 933,-170 933,-170 939,-170 945,-176 945,-182 945,-182 945,-194 945,-194 945,-200 939,-206 933,-206"/>
<text text-anchor="middle" x="918" y="-184.3" font-family="Arial" font-size="14.00" fill="#000000">pio</text>
</g>
<!-- system_membus_cpu_side_ports&#45;&gt;system_cpu_interrupts_int_requestor -->
<g id="edge7" class="edge">
<title>system_membus_cpu_side_ports&#45;&gt;system_cpu_interrupts_int_requestor</title>
<path fill="none" stroke="#000000" d="M683.0423,-395.6481C686.5781,-346.5625 693.7437,-247.0879 696.6898,-206.1884"/>
<polygon fill="#000000" stroke="#000000" points="679.5333,-395.6477 682.3057,-405.8733 686.5153,-396.1507 679.5333,-395.6477"/>
</g>
<!-- system_l2_mem_side -->
<g id="node20" class="node">
<title>system_l2_mem_side</title>
<path fill="#94918b" stroke="#000000" d="M118,-76C118,-76 58,-76 58,-76 52,-76 46,-70 46,-64 46,-64 46,-52 46,-52 46,-46 52,-40 58,-40 58,-40 118,-40 118,-40 124,-40 130,-46 130,-52 130,-52 130,-64 130,-64 130,-70 124,-76 118,-76"/>
<text text-anchor="middle" x="88" y="-54.3" font-family="Arial" font-size="14.00" fill="#000000">mem_side</text>
</g>
<!-- system_membus_cpu_side_ports&#45;&gt;system_l2_mem_side -->
<g id="edge6" class="edge">
<title>system_membus_cpu_side_ports&#45;&gt;system_l2_mem_side</title>
<path fill="none" stroke="#000000" d="M612.3738,-422.9274C449.1386,-420.0409 49.81,-410.8716 30,-390 -7.3277,-350.6719 14.4239,-197.9368 30,-146 38.0421,-119.1846 57.1886,-92.989 71.2936,-76.2506"/>
<polygon fill="#000000" stroke="#000000" points="612.7184,-426.4338 622.7779,-423.1085 612.8403,-419.4349 612.7184,-426.4338"/>
</g>
<!-- system_membus_mem_side_ports -->
<g id="node18" class="node">
<title>system_membus_mem_side_ports</title>
<path fill="#586070" stroke="#000000" d="M870.5,-442C870.5,-442 769.5,-442 769.5,-442 763.5,-442 757.5,-436 757.5,-430 757.5,-430 757.5,-418 757.5,-418 757.5,-412 763.5,-406 769.5,-406 769.5,-406 870.5,-406 870.5,-406 876.5,-406 882.5,-412 882.5,-418 882.5,-418 882.5,-430 882.5,-430 882.5,-436 876.5,-442 870.5,-442"/>
<text text-anchor="middle" x="820" y="-420.3" font-family="Arial" font-size="14.00" fill="#000000">mem_side_ports</text>
</g>
<!-- system_membus_mem_side_ports&#45;&gt;system_cpu_interrupts_int_responder -->
<g id="edge9" class="edge">
<title>system_membus_mem_side_ports&#45;&gt;system_cpu_interrupts_int_responder</title>
<path fill="none" stroke="#000000" d="M820,-405.8733C820,-365.0329 820,-265.5625 820,-216.4261"/>
<polygon fill="#000000" stroke="#000000" points="823.5001,-216.1884 820,-206.1884 816.5001,-216.1884 823.5001,-216.1884"/>
</g>
<!-- system_membus_mem_side_ports&#45;&gt;system_cpu_interrupts_pio -->
<g id="edge8" class="edge">
<title>system_membus_mem_side_ports&#45;&gt;system_cpu_interrupts_pio</title>
<path fill="none" stroke="#000000" d="M864.8914,-405.8755C871.4431,-401.5312 877.4888,-396.282 882,-390 919.6551,-337.5638 922.0383,-258.1385 920.2179,-216.2133"/>
<polygon fill="#000000" stroke="#000000" points="923.709,-215.9534 919.6674,-206.1597 916.7195,-216.3361 923.709,-215.9534"/>
</g>
<!-- system_mem_ctrls_port -->
<g id="node23" class="node">
<title>system_mem_ctrls_port</title>
<path fill="#94918b" stroke="#000000" d="M101,-206C101,-206 71,-206 71,-206 65,-206 59,-200 59,-194 59,-194 59,-182 59,-182 59,-176 65,-170 71,-170 71,-170 101,-170 101,-170 107,-170 113,-176 113,-182 113,-182 113,-194 113,-194 113,-200 107,-206 101,-206"/>
<text text-anchor="middle" x="86" y="-184.3" font-family="Arial" font-size="14.00" fill="#000000">port</text>
</g>
<!-- system_membus_mem_side_ports&#45;&gt;system_mem_ctrls_port -->
<g id="edge10" class="edge">
<title>system_membus_mem_side_ports&#45;&gt;system_mem_ctrls_port</title>
<path fill="none" stroke="#000000" d="M777.2424,-405.9267C767.7746,-402.6717 757.6763,-399.7577 748,-398 730.9717,-394.9068 138.2765,-401.1025 125,-390 74.3755,-347.6653 76.5111,-261.2162 81.6193,-216.3836"/>
<polygon fill="#000000" stroke="#000000" points="85.1259,-216.5524 82.9156,-206.1907 78.1819,-215.6692 85.1259,-216.5524"/>
</g>
<!-- system_l2_cpu_side -->
<g id="node19" class="node">
<title>system_l2_cpu_side</title>
<path fill="#94918b" stroke="#000000" d="M212,-76C212,-76 160,-76 160,-76 154,-76 148,-70 148,-64 148,-64 148,-52 148,-52 148,-46 154,-40 160,-40 160,-40 212,-40 212,-40 218,-40 224,-46 224,-52 224,-52 224,-64 224,-64 224,-70 218,-76 212,-76"/>
<text text-anchor="middle" x="186" y="-54.3" font-family="Arial" font-size="14.00" fill="#000000">cpu_side</text>
</g>
<!-- system_tol2bus_cpu_side_ports -->
<g id="node21" class="node">
<title>system_tol2bus_cpu_side_ports</title>
<path fill="#586070" stroke="#000000" d="M385,-206C385,-206 293,-206 293,-206 287,-206 281,-200 281,-194 281,-194 281,-182 281,-182 281,-176 287,-170 293,-170 293,-170 385,-170 385,-170 391,-170 397,-176 397,-182 397,-182 397,-194 397,-194 397,-200 391,-206 385,-206"/>
<text text-anchor="middle" x="339" y="-184.3" font-family="Arial" font-size="14.00" fill="#000000">cpu_side_ports</text>
</g>
<!-- system_tol2bus_cpu_side_ports&#45;&gt;system_cpu_icache_mem_side -->
<g id="edge11" class="edge">
<title>system_tol2bus_cpu_side_ports&#45;&gt;system_cpu_icache_mem_side</title>
<path fill="none" stroke="#000000" d="M371.9379,-164.2968C383.1935,-157.2944 396.1861,-150.3477 409,-146 497.9598,-115.8165 536.1956,-166.3657 619,-122 638.3497,-111.6326 653.6603,-91.2289 662.9645,-76.2356"/>
<polygon fill="#000000" stroke="#000000" points="369.8125,-161.5033 363.3201,-169.8759 373.6167,-167.3794 369.8125,-161.5033"/>
</g>
<!-- system_tol2bus_cpu_side_ports&#45;&gt;system_cpu_dcache_mem_side -->
<g id="edge12" class="edge">
<title>system_tol2bus_cpu_side_ports&#45;&gt;system_cpu_dcache_mem_side</title>
<path fill="none" stroke="#000000" d="M364.5606,-162.8267C390.3109,-137.4666 429.4247,-98.9454 452.3763,-76.3415"/>
<polygon fill="#000000" stroke="#000000" points="362.023,-160.4134 357.354,-169.9241 366.9348,-165.4008 362.023,-160.4134"/>
</g>
<!-- system_tol2bus_cpu_side_ports&#45;&gt;system_cpu_itb_walker_cache_mem_side -->
<g id="edge13" class="edge">
<title>system_tol2bus_cpu_side_ports&#45;&gt;system_cpu_itb_walker_cache_mem_side</title>
<path fill="none" stroke="#000000" d="M371.245,-164.2233C382.6177,-157.073 395.8565,-150.0557 409,-146 496.6335,-118.9587 737.1822,-159.2215 821,-122 843.0001,-112.2303 861.7901,-91.4996 873.4261,-76.2683"/>
<polygon fill="#000000" stroke="#000000" points="368.9949,-161.5139 362.5618,-169.9322 372.8405,-167.363 368.9949,-161.5139"/>
</g>
<!-- system_tol2bus_cpu_side_ports&#45;&gt;system_cpu_dtb_walker_cache_mem_side -->
<g id="edge14" class="edge">
<title>system_tol2bus_cpu_side_ports&#45;&gt;system_cpu_dtb_walker_cache_mem_side</title>
<path fill="none" stroke="#000000" d="M371.1993,-164.0725C382.5686,-156.9111 395.817,-149.9254 409,-146 542.2113,-106.335 907.7897,-180.2197 1034,-122 1054.9954,-112.315 1071.9692,-91.3462 1082.2289,-76.0408"/>
<polygon fill="#000000" stroke="#000000" points="368.9405,-161.3696 362.5213,-169.7984 372.7957,-167.2124 368.9405,-161.3696"/>
</g>
<!-- system_tol2bus_mem_side_ports -->
<g id="node22" class="node">
<title>system_tol2bus_mem_side_ports</title>
<path fill="#586070" stroke="#000000" d="M250.5,-206C250.5,-206 149.5,-206 149.5,-206 143.5,-206 137.5,-200 137.5,-194 137.5,-194 137.5,-182 137.5,-182 137.5,-176 143.5,-170 149.5,-170 149.5,-170 250.5,-170 250.5,-170 256.5,-170 262.5,-176 262.5,-182 262.5,-182 262.5,-194 262.5,-194 262.5,-200 256.5,-206 250.5,-206"/>
<text text-anchor="middle" x="200" y="-184.3" font-family="Arial" font-size="14.00" fill="#000000">mem_side_ports</text>
</g>
<!-- system_tol2bus_mem_side_ports&#45;&gt;system_l2_cpu_side -->
<g id="edge15" class="edge">
<title>system_tol2bus_mem_side_ports&#45;&gt;system_l2_cpu_side</title>
<path fill="none" stroke="#000000" d="M198.0534,-169.9241C195.7261,-148.3139 191.8032,-111.8868 189.0671,-86.4801"/>
<polygon fill="#000000" stroke="#000000" points="192.5259,-85.9092 187.9752,-76.3415 185.5662,-86.6588 192.5259,-85.9092"/>
</g>
</g>
</svg>
